<mxfile host="app.diagrams.net" modified="2020-07-18T02:31:01.459Z" agent="5.0 (Macintosh; Intel Mac OS X 10_15_5) AppleWebKit/537.36 (KHTML, like Gecko) Chrome/83.0.4103.116 Safari/537.36" etag="byMCuZnj1ZNHtr9FgPoB" version="13.3.5" type="github">
  <diagram name="Page-1" id="9f46799a-70d6-7492-0946-bef42562c5a5">
    <mxGraphModel dx="1186" dy="796" grid="1" gridSize="10" guides="1" tooltips="1" connect="1" arrows="1" fold="1" page="1" pageScale="1" pageWidth="1100" pageHeight="850" background="#ffffff" math="0" shadow="0">
      <root>
        <mxCell id="0" />
        <mxCell id="1" parent="0" />
        <mxCell id="e2F7vwqkQ3G3IU7HkBEM-15" value="" style="endArrow=ERmany;html=1;endFill=0;entryX=0.5;entryY=0;entryDx=0;entryDy=0;edgeStyle=orthogonalEdgeStyle;exitX=1;exitY=0.5;exitDx=0;exitDy=0;" parent="1" source="e2F7vwqkQ3G3IU7HkBEM-13" target="e2F7vwqkQ3G3IU7HkBEM-5" edge="1">
          <mxGeometry width="50" height="50" relative="1" as="geometry">
            <mxPoint x="40" y="230" as="sourcePoint" />
            <mxPoint x="220" y="130" as="targetPoint" />
          </mxGeometry>
        </mxCell>
        <mxCell id="e2F7vwqkQ3G3IU7HkBEM-26" value="" style="endArrow=ERmany;html=1;endFill=0;entryX=0.5;entryY=0;entryDx=0;entryDy=0;edgeStyle=orthogonalEdgeStyle;exitX=0.471;exitY=0.962;exitDx=0;exitDy=0;exitPerimeter=0;" parent="1" source="e2F7vwqkQ3G3IU7HkBEM-19" target="e2F7vwqkQ3G3IU7HkBEM-21" edge="1">
          <mxGeometry width="50" height="50" relative="1" as="geometry">
            <mxPoint x="702" y="174" as="sourcePoint" />
            <mxPoint x="232" y="114" as="targetPoint" />
          </mxGeometry>
        </mxCell>
        <mxCell id="e2F7vwqkQ3G3IU7HkBEM-27" value="AccountingEntries" style="swimlane;fontStyle=0;childLayout=stackLayout;horizontal=1;startSize=26;fillColor=#ffffff;horizontalStack=0;resizeParent=1;resizeParentMax=0;resizeLast=0;collapsible=1;marginBottom=0;swimlaneFillColor=#ffffff;fontSize=14;" parent="1" vertex="1">
          <mxGeometry x="410" y="440" width="140" height="156" as="geometry">
            <mxRectangle x="200" y="110" width="80" height="26" as="alternateBounds" />
          </mxGeometry>
        </mxCell>
        <mxCell id="e2F7vwqkQ3G3IU7HkBEM-28" value="id" style="text;strokeColor=none;fillColor=none;align=left;verticalAlign=top;spacingLeft=4;spacingRight=4;overflow=hidden;rotatable=0;points=[[0,0.5],[1,0.5]];portConstraint=eastwest;fontSize=14;" parent="e2F7vwqkQ3G3IU7HkBEM-27" vertex="1">
          <mxGeometry y="26" width="140" height="26" as="geometry" />
        </mxCell>
        <mxCell id="e2F7vwqkQ3G3IU7HkBEM-32" value="event_id" style="text;strokeColor=none;fillColor=none;align=left;verticalAlign=top;spacingLeft=4;spacingRight=4;overflow=hidden;rotatable=0;points=[[0,0.5],[1,0.5]];portConstraint=eastwest;fontSize=14;" parent="e2F7vwqkQ3G3IU7HkBEM-27" vertex="1">
          <mxGeometry y="52" width="140" height="26" as="geometry" />
        </mxCell>
        <mxCell id="e2F7vwqkQ3G3IU7HkBEM-30" value="credit_id" style="text;strokeColor=none;fillColor=none;align=left;verticalAlign=top;spacingLeft=4;spacingRight=4;overflow=hidden;rotatable=0;points=[[0,0.5],[1,0.5]];portConstraint=eastwest;fontSize=14;" parent="e2F7vwqkQ3G3IU7HkBEM-27" vertex="1">
          <mxGeometry y="78" width="140" height="26" as="geometry" />
        </mxCell>
        <mxCell id="e2F7vwqkQ3G3IU7HkBEM-31" value="debit_id" style="text;strokeColor=none;fillColor=none;align=left;verticalAlign=top;spacingLeft=4;spacingRight=4;overflow=hidden;rotatable=0;points=[[0,0.5],[1,0.5]];portConstraint=eastwest;fontSize=14;" parent="e2F7vwqkQ3G3IU7HkBEM-27" vertex="1">
          <mxGeometry y="104" width="140" height="26" as="geometry" />
        </mxCell>
        <mxCell id="e2F7vwqkQ3G3IU7HkBEM-67" value="amount" style="text;strokeColor=none;fillColor=none;align=left;verticalAlign=top;spacingLeft=4;spacingRight=4;overflow=hidden;rotatable=0;points=[[0,0.5],[1,0.5]];portConstraint=eastwest;fontSize=14;" parent="e2F7vwqkQ3G3IU7HkBEM-27" vertex="1">
          <mxGeometry y="130" width="140" height="26" as="geometry" />
        </mxCell>
        <mxCell id="e2F7vwqkQ3G3IU7HkBEM-33" value="" style="endArrow=ERmany;html=1;endFill=0;edgeStyle=orthogonalEdgeStyle;exitX=0;exitY=0.5;exitDx=0;exitDy=0;entryX=1;entryY=0.5;entryDx=0;entryDy=0;" parent="1" source="e2F7vwqkQ3G3IU7HkBEM-23" target="e2F7vwqkQ3G3IU7HkBEM-32" edge="1">
          <mxGeometry width="50" height="50" relative="1" as="geometry">
            <mxPoint x="775.94" y="391.01199999999994" as="sourcePoint" />
            <mxPoint x="580" y="500" as="targetPoint" />
          </mxGeometry>
        </mxCell>
        <mxCell id="e2F7vwqkQ3G3IU7HkBEM-34" value="" style="endArrow=ERmany;html=1;endFill=0;edgeStyle=orthogonalEdgeStyle;entryX=0;entryY=0.5;entryDx=0;entryDy=0;" parent="1" target="e2F7vwqkQ3G3IU7HkBEM-30" edge="1">
          <mxGeometry width="50" height="50" relative="1" as="geometry">
            <mxPoint x="317" y="278" as="sourcePoint" />
            <mxPoint x="560" y="539" as="targetPoint" />
          </mxGeometry>
        </mxCell>
        <mxCell id="e2F7vwqkQ3G3IU7HkBEM-35" value="" style="endArrow=ERmany;html=1;endFill=0;edgeStyle=orthogonalEdgeStyle;entryX=0;entryY=0.5;entryDx=0;entryDy=0;" parent="1" source="e2F7vwqkQ3G3IU7HkBEM-10" target="e2F7vwqkQ3G3IU7HkBEM-31" edge="1">
          <mxGeometry width="50" height="50" relative="1" as="geometry">
            <mxPoint x="250" y="410" as="sourcePoint" />
            <mxPoint x="420" y="565" as="targetPoint" />
            <Array as="points">
              <mxPoint x="315" y="557" />
            </Array>
          </mxGeometry>
        </mxCell>
        <mxCell id="e2F7vwqkQ3G3IU7HkBEM-43" value="" style="endArrow=ERmany;html=1;endFill=0;edgeStyle=orthogonalEdgeStyle;exitX=0.514;exitY=0.962;exitDx=0;exitDy=0;exitPerimeter=0;entryX=0;entryY=0.5;entryDx=0;entryDy=0;" parent="1" edge="1">
          <mxGeometry width="50" height="50" relative="1" as="geometry">
            <mxPoint x="171.96000000000004" y="489.01199999999994" as="sourcePoint" />
            <mxPoint x="400" y="730" as="targetPoint" />
          </mxGeometry>
        </mxCell>
        <mxCell id="e2F7vwqkQ3G3IU7HkBEM-44" value="" style="endArrow=ERmany;html=1;endFill=0;edgeStyle=orthogonalEdgeStyle;exitX=0.514;exitY=1;exitDx=0;exitDy=0;exitPerimeter=0;entryX=0;entryY=0.5;entryDx=0;entryDy=0;" parent="1" edge="1">
          <mxGeometry width="50" height="50" relative="1" as="geometry">
            <mxPoint x="171.96000000000004" y="490" as="sourcePoint" />
            <mxPoint x="420" y="747" as="targetPoint" />
          </mxGeometry>
        </mxCell>
        <mxCell id="e2F7vwqkQ3G3IU7HkBEM-11" value="Organizations" style="swimlane;fontStyle=0;childLayout=stackLayout;horizontal=1;startSize=26;fillColor=#ffffff;horizontalStack=0;resizeParent=1;resizeParentMax=0;resizeLast=0;collapsible=1;marginBottom=0;swimlaneFillColor=#ffffff;fontSize=14;" parent="1" vertex="1">
          <mxGeometry x="30" y="10" width="140" height="104" as="geometry">
            <mxRectangle x="200" y="110" width="80" height="26" as="alternateBounds" />
          </mxGeometry>
        </mxCell>
        <mxCell id="e2F7vwqkQ3G3IU7HkBEM-12" value="id" style="text;strokeColor=none;fillColor=none;align=left;verticalAlign=top;spacingLeft=4;spacingRight=4;overflow=hidden;rotatable=0;points=[[0,0.5],[1,0.5]];portConstraint=eastwest;fontSize=14;" parent="e2F7vwqkQ3G3IU7HkBEM-11" vertex="1">
          <mxGeometry y="26" width="140" height="26" as="geometry" />
        </mxCell>
        <mxCell id="e2F7vwqkQ3G3IU7HkBEM-13" value="name" style="text;strokeColor=none;fillColor=none;align=left;verticalAlign=top;spacingLeft=4;spacingRight=4;overflow=hidden;rotatable=0;points=[[0,0.5],[1,0.5]];portConstraint=eastwest;fontSize=14;" parent="e2F7vwqkQ3G3IU7HkBEM-11" vertex="1">
          <mxGeometry y="52" width="140" height="26" as="geometry" />
        </mxCell>
        <mxCell id="e2F7vwqkQ3G3IU7HkBEM-14" value="inn" style="text;strokeColor=none;fillColor=none;align=left;verticalAlign=top;spacingLeft=4;spacingRight=4;overflow=hidden;rotatable=0;points=[[0,0.5],[1,0.5]];portConstraint=eastwest;fontSize=14;" parent="e2F7vwqkQ3G3IU7HkBEM-11" vertex="1">
          <mxGeometry y="78" width="140" height="26" as="geometry" />
        </mxCell>
        <mxCell id="e2F7vwqkQ3G3IU7HkBEM-56" value="BankAccounts" style="swimlane;fontStyle=0;childLayout=stackLayout;horizontal=1;startSize=26;fillColor=#ffffff;horizontalStack=0;resizeParent=1;resizeParentMax=0;resizeLast=0;collapsible=1;marginBottom=0;swimlaneFillColor=#ffffff;fontSize=14;" parent="1" vertex="1">
          <mxGeometry x="20" y="180" width="140" height="104" as="geometry">
            <mxRectangle x="200" y="200" width="80" height="26" as="alternateBounds" />
          </mxGeometry>
        </mxCell>
        <mxCell id="e2F7vwqkQ3G3IU7HkBEM-57" value="id" style="text;strokeColor=none;fillColor=none;align=left;verticalAlign=top;spacingLeft=4;spacingRight=4;overflow=hidden;rotatable=0;points=[[0,0.5],[1,0.5]];portConstraint=eastwest;fontSize=14;" parent="e2F7vwqkQ3G3IU7HkBEM-56" vertex="1">
          <mxGeometry y="26" width="140" height="26" as="geometry" />
        </mxCell>
        <mxCell id="e2F7vwqkQ3G3IU7HkBEM-58" value="name" style="text;strokeColor=none;fillColor=none;align=left;verticalAlign=top;spacingLeft=4;spacingRight=4;overflow=hidden;rotatable=0;points=[[0,0.5],[1,0.5]];portConstraint=eastwest;fontSize=14;" parent="e2F7vwqkQ3G3IU7HkBEM-56" vertex="1">
          <mxGeometry y="52" width="140" height="26" as="geometry" />
        </mxCell>
        <mxCell id="e2F7vwqkQ3G3IU7HkBEM-59" value="account_id" style="text;strokeColor=none;fillColor=none;align=left;verticalAlign=top;spacingLeft=4;spacingRight=4;overflow=hidden;rotatable=0;points=[[0,0.5],[1,0.5]];portConstraint=eastwest;fontSize=14;" parent="e2F7vwqkQ3G3IU7HkBEM-56" vertex="1">
          <mxGeometry y="78" width="140" height="26" as="geometry" />
        </mxCell>
        <mxCell id="e2F7vwqkQ3G3IU7HkBEM-5" value="Accounts" style="swimlane;fontStyle=0;childLayout=stackLayout;horizontal=1;startSize=26;fillColor=#ffffff;horizontalStack=0;resizeParent=1;resizeParentMax=0;resizeLast=0;collapsible=1;marginBottom=0;swimlaneFillColor=#ffffff;fontSize=14;" parent="1" vertex="1">
          <mxGeometry x="230" y="200" width="140" height="78" as="geometry">
            <mxRectangle x="200" y="200" width="80" height="26" as="alternateBounds" />
          </mxGeometry>
        </mxCell>
        <mxCell id="e2F7vwqkQ3G3IU7HkBEM-8" value="id" style="text;strokeColor=none;fillColor=none;align=left;verticalAlign=top;spacingLeft=4;spacingRight=4;overflow=hidden;rotatable=0;points=[[0,0.5],[1,0.5]];portConstraint=eastwest;fontSize=14;" parent="e2F7vwqkQ3G3IU7HkBEM-5" vertex="1">
          <mxGeometry y="26" width="140" height="26" as="geometry" />
        </mxCell>
        <mxCell id="e2F7vwqkQ3G3IU7HkBEM-10" value="organization_id" style="text;strokeColor=none;fillColor=none;align=left;verticalAlign=top;spacingLeft=4;spacingRight=4;overflow=hidden;rotatable=0;points=[[0,0.5],[1,0.5]];portConstraint=eastwest;fontSize=14;" parent="e2F7vwqkQ3G3IU7HkBEM-5" vertex="1">
          <mxGeometry y="52" width="140" height="26" as="geometry" />
        </mxCell>
        <mxCell id="e2F7vwqkQ3G3IU7HkBEM-70" value="TagAccounts" style="swimlane;fontStyle=0;childLayout=stackLayout;horizontal=1;startSize=26;fillColor=#ffffff;horizontalStack=0;resizeParent=1;resizeParentMax=0;resizeLast=0;collapsible=1;marginBottom=0;swimlaneFillColor=#ffffff;fontSize=14;" parent="1" vertex="1">
          <mxGeometry x="450" y="60" width="140" height="104" as="geometry">
            <mxRectangle x="200" y="200" width="80" height="26" as="alternateBounds" />
          </mxGeometry>
        </mxCell>
        <mxCell id="e2F7vwqkQ3G3IU7HkBEM-71" value="id" style="text;strokeColor=none;fillColor=none;align=left;verticalAlign=top;spacingLeft=4;spacingRight=4;overflow=hidden;rotatable=0;points=[[0,0.5],[1,0.5]];portConstraint=eastwest;fontSize=14;" parent="e2F7vwqkQ3G3IU7HkBEM-70" vertex="1">
          <mxGeometry y="26" width="140" height="26" as="geometry" />
        </mxCell>
        <mxCell id="e2F7vwqkQ3G3IU7HkBEM-72" value="tag_name" style="text;strokeColor=none;fillColor=none;align=left;verticalAlign=top;spacingLeft=4;spacingRight=4;overflow=hidden;rotatable=0;points=[[0,0.5],[1,0.5]];portConstraint=eastwest;fontSize=14;" parent="e2F7vwqkQ3G3IU7HkBEM-70" vertex="1">
          <mxGeometry y="52" width="140" height="26" as="geometry" />
        </mxCell>
        <mxCell id="e2F7vwqkQ3G3IU7HkBEM-75" value="account_id" style="text;strokeColor=none;fillColor=none;align=left;verticalAlign=top;spacingLeft=4;spacingRight=4;overflow=hidden;rotatable=0;points=[[0,0.5],[1,0.5]];portConstraint=eastwest;fontSize=14;" parent="e2F7vwqkQ3G3IU7HkBEM-70" vertex="1">
          <mxGeometry y="78" width="140" height="26" as="geometry" />
        </mxCell>
        <mxCell id="bCxZbBtF5jadTz3_KmkX-8" value="User" style="swimlane;fontStyle=0;childLayout=stackLayout;horizontal=1;startSize=26;fillColor=#ffffff;horizontalStack=0;resizeParent=1;resizeParentMax=0;resizeLast=0;collapsible=1;marginBottom=0;swimlaneFillColor=#ffffff;fontSize=14;" parent="1" vertex="1">
          <mxGeometry x="1260" y="102" width="140" height="78" as="geometry">
            <mxRectangle x="200" y="110" width="80" height="26" as="alternateBounds" />
          </mxGeometry>
        </mxCell>
        <mxCell id="bCxZbBtF5jadTz3_KmkX-13" value="id" style="text;strokeColor=none;fillColor=none;align=left;verticalAlign=top;spacingLeft=4;spacingRight=4;overflow=hidden;rotatable=0;points=[[0,0.5],[1,0.5]];portConstraint=eastwest;fontSize=14;" parent="bCxZbBtF5jadTz3_KmkX-8" vertex="1">
          <mxGeometry y="26" width="140" height="26" as="geometry" />
        </mxCell>
        <mxCell id="bCxZbBtF5jadTz3_KmkX-14" value="name" style="text;strokeColor=none;fillColor=none;align=left;verticalAlign=top;spacingLeft=4;spacingRight=4;overflow=hidden;rotatable=0;points=[[0,0.5],[1,0.5]];portConstraint=eastwest;fontSize=14;" parent="bCxZbBtF5jadTz3_KmkX-8" vertex="1">
          <mxGeometry y="52" width="140" height="26" as="geometry" />
        </mxCell>
        <mxCell id="bCxZbBtF5jadTz3_KmkX-11" value="Company" style="swimlane;fontStyle=0;childLayout=stackLayout;horizontal=1;startSize=26;fillColor=#ffffff;horizontalStack=0;resizeParent=1;resizeParentMax=0;resizeLast=0;collapsible=1;marginBottom=0;swimlaneFillColor=#ffffff;fontSize=14;" parent="1" vertex="1">
          <mxGeometry x="1690" y="102" width="140" height="78" as="geometry">
            <mxRectangle x="200" y="110" width="80" height="26" as="alternateBounds" />
          </mxGeometry>
        </mxCell>
        <mxCell id="bCxZbBtF5jadTz3_KmkX-19" value="id" style="text;strokeColor=none;fillColor=none;align=left;verticalAlign=top;spacingLeft=4;spacingRight=4;overflow=hidden;rotatable=0;points=[[0,0.5],[1,0.5]];portConstraint=eastwest;fontSize=14;" parent="bCxZbBtF5jadTz3_KmkX-11" vertex="1">
          <mxGeometry y="26" width="140" height="26" as="geometry" />
        </mxCell>
        <mxCell id="bCxZbBtF5jadTz3_KmkX-20" value="name" style="text;strokeColor=none;fillColor=none;align=left;verticalAlign=top;spacingLeft=4;spacingRight=4;overflow=hidden;rotatable=0;points=[[0,0.5],[1,0.5]];portConstraint=eastwest;fontSize=14;" parent="bCxZbBtF5jadTz3_KmkX-11" vertex="1">
          <mxGeometry y="52" width="140" height="26" as="geometry" />
        </mxCell>
        <mxCell id="bCxZbBtF5jadTz3_KmkX-12" value="UserCompany" style="swimlane;fontStyle=0;childLayout=stackLayout;horizontal=1;startSize=26;fillColor=#ffffff;horizontalStack=0;resizeParent=1;resizeParentMax=0;resizeLast=0;collapsible=1;marginBottom=0;swimlaneFillColor=#ffffff;fontSize=14;" parent="1" vertex="1">
          <mxGeometry x="1490" y="102" width="140" height="130" as="geometry">
            <mxRectangle x="200" y="110" width="80" height="26" as="alternateBounds" />
          </mxGeometry>
        </mxCell>
        <mxCell id="bCxZbBtF5jadTz3_KmkX-15" value="id" style="text;strokeColor=none;fillColor=none;align=left;verticalAlign=top;spacingLeft=4;spacingRight=4;overflow=hidden;rotatable=0;points=[[0,0.5],[1,0.5]];portConstraint=eastwest;fontSize=14;" parent="bCxZbBtF5jadTz3_KmkX-12" vertex="1">
          <mxGeometry y="26" width="140" height="26" as="geometry" />
        </mxCell>
        <mxCell id="bCxZbBtF5jadTz3_KmkX-16" value="user_id" style="text;strokeColor=none;fillColor=none;align=left;verticalAlign=top;spacingLeft=4;spacingRight=4;overflow=hidden;rotatable=0;points=[[0,0.5],[1,0.5]];portConstraint=eastwest;fontSize=14;" parent="bCxZbBtF5jadTz3_KmkX-12" vertex="1">
          <mxGeometry y="52" width="140" height="26" as="geometry" />
        </mxCell>
        <mxCell id="bCxZbBtF5jadTz3_KmkX-17" value="company_id" style="text;strokeColor=none;fillColor=none;align=left;verticalAlign=top;spacingLeft=4;spacingRight=4;overflow=hidden;rotatable=0;points=[[0,0.5],[1,0.5]];portConstraint=eastwest;fontSize=14;" parent="bCxZbBtF5jadTz3_KmkX-12" vertex="1">
          <mxGeometry y="78" width="140" height="26" as="geometry" />
        </mxCell>
        <mxCell id="bCxZbBtF5jadTz3_KmkX-18" value="is_head" style="text;strokeColor=none;fillColor=none;align=left;verticalAlign=top;spacingLeft=4;spacingRight=4;overflow=hidden;rotatable=0;points=[[0,0.5],[1,0.5]];portConstraint=eastwest;fontSize=14;" parent="bCxZbBtF5jadTz3_KmkX-12" vertex="1">
          <mxGeometry y="104" width="140" height="26" as="geometry" />
        </mxCell>
        <mxCell id="bCxZbBtF5jadTz3_KmkX-23" value="Account" style="swimlane;fontStyle=0;childLayout=stackLayout;horizontal=1;startSize=26;fillColor=#ffffff;horizontalStack=0;resizeParent=1;resizeParentMax=0;resizeLast=0;collapsible=1;marginBottom=0;swimlaneFillColor=#ffffff;fontSize=14;" parent="1" vertex="1">
          <mxGeometry x="1490" y="340" width="140" height="130" as="geometry">
            <mxRectangle x="200" y="110" width="80" height="26" as="alternateBounds" />
          </mxGeometry>
        </mxCell>
        <mxCell id="bCxZbBtF5jadTz3_KmkX-24" value="id" style="text;strokeColor=none;fillColor=none;align=left;verticalAlign=top;spacingLeft=4;spacingRight=4;overflow=hidden;rotatable=0;points=[[0,0.5],[1,0.5]];portConstraint=eastwest;fontSize=14;" parent="bCxZbBtF5jadTz3_KmkX-23" vertex="1">
          <mxGeometry y="26" width="140" height="26" as="geometry" />
        </mxCell>
        <mxCell id="bCxZbBtF5jadTz3_KmkX-26" value="number" style="text;strokeColor=none;fillColor=none;align=left;verticalAlign=top;spacingLeft=4;spacingRight=4;overflow=hidden;rotatable=0;points=[[0,0.5],[1,0.5]];portConstraint=eastwest;fontSize=14;" parent="bCxZbBtF5jadTz3_KmkX-23" vertex="1">
          <mxGeometry y="52" width="140" height="26" as="geometry" />
        </mxCell>
        <mxCell id="bCxZbBtF5jadTz3_KmkX-27" value="name" style="text;strokeColor=none;fillColor=none;align=left;verticalAlign=top;spacingLeft=4;spacingRight=4;overflow=hidden;rotatable=0;points=[[0,0.5],[1,0.5]];portConstraint=eastwest;fontSize=14;" parent="bCxZbBtF5jadTz3_KmkX-23" vertex="1">
          <mxGeometry y="78" width="140" height="26" as="geometry" />
        </mxCell>
        <mxCell id="bCxZbBtF5jadTz3_KmkX-25" value="kind" style="text;strokeColor=none;fillColor=none;align=left;verticalAlign=top;spacingLeft=4;spacingRight=4;overflow=hidden;rotatable=0;points=[[0,0.5],[1,0.5]];portConstraint=eastwest;fontSize=14;" parent="bCxZbBtF5jadTz3_KmkX-23" vertex="1">
          <mxGeometry y="104" width="140" height="26" as="geometry" />
        </mxCell>
        <mxCell id="bCxZbBtF5jadTz3_KmkX-28" value="CompanyAccount" style="swimlane;fontStyle=0;childLayout=stackLayout;horizontal=1;startSize=26;fillColor=#ffffff;horizontalStack=0;resizeParent=1;resizeParentMax=0;resizeLast=0;collapsible=1;marginBottom=0;swimlaneFillColor=#ffffff;fontSize=14;" parent="1" vertex="1">
          <mxGeometry x="1690" y="340" width="140" height="104" as="geometry">
            <mxRectangle x="200" y="110" width="80" height="26" as="alternateBounds" />
          </mxGeometry>
        </mxCell>
        <mxCell id="bCxZbBtF5jadTz3_KmkX-29" value="id" style="text;strokeColor=none;fillColor=none;align=left;verticalAlign=top;spacingLeft=4;spacingRight=4;overflow=hidden;rotatable=0;points=[[0,0.5],[1,0.5]];portConstraint=eastwest;fontSize=14;" parent="bCxZbBtF5jadTz3_KmkX-28" vertex="1">
          <mxGeometry y="26" width="140" height="26" as="geometry" />
        </mxCell>
        <mxCell id="bCxZbBtF5jadTz3_KmkX-30" value="company_id" style="text;strokeColor=none;fillColor=none;align=left;verticalAlign=top;spacingLeft=4;spacingRight=4;overflow=hidden;rotatable=0;points=[[0,0.5],[1,0.5]];portConstraint=eastwest;fontSize=14;" parent="bCxZbBtF5jadTz3_KmkX-28" vertex="1">
          <mxGeometry y="52" width="140" height="26" as="geometry" />
        </mxCell>
        <mxCell id="bCxZbBtF5jadTz3_KmkX-31" value="account_id" style="text;strokeColor=none;fillColor=none;align=left;verticalAlign=top;spacingLeft=4;spacingRight=4;overflow=hidden;rotatable=0;points=[[0,0.5],[1,0.5]];portConstraint=eastwest;fontSize=14;" parent="bCxZbBtF5jadTz3_KmkX-28" vertex="1">
          <mxGeometry y="78" width="140" height="26" as="geometry" />
        </mxCell>
        <mxCell id="e2F7vwqkQ3G3IU7HkBEM-60" value="" style="endArrow=ERmany;html=1;endFill=0;entryX=1;entryY=0.5;entryDx=0;entryDy=0;edgeStyle=orthogonalEdgeStyle;" parent="1" target="e2F7vwqkQ3G3IU7HkBEM-59" edge="1">
          <mxGeometry width="50" height="50" relative="1" as="geometry">
            <mxPoint x="230" y="265.0588235294117" as="sourcePoint" />
            <mxPoint x="280" y="210" as="targetPoint" />
          </mxGeometry>
        </mxCell>
        <mxCell id="e2F7vwqkQ3G3IU7HkBEM-77" value="" style="endArrow=ERmany;html=1;endFill=0;entryX=0;entryY=0.5;entryDx=0;entryDy=0;edgeStyle=orthogonalEdgeStyle;exitX=1;exitY=0.5;exitDx=0;exitDy=0;" parent="1" source="e2F7vwqkQ3G3IU7HkBEM-10" target="e2F7vwqkQ3G3IU7HkBEM-75" edge="1">
          <mxGeometry width="50" height="50" relative="1" as="geometry">
            <mxPoint x="180" y="85" as="sourcePoint" />
            <mxPoint x="310" y="210" as="targetPoint" />
          </mxGeometry>
        </mxCell>
        <mxCell id="e2F7vwqkQ3G3IU7HkBEM-90" value="" style="group" parent="1" vertex="1" connectable="0">
          <mxGeometry x="650" y="51" width="140" height="80" as="geometry" />
        </mxCell>
        <mxCell id="e2F7vwqkQ3G3IU7HkBEM-78" value="Partner" style="swimlane;fontStyle=0;childLayout=stackLayout;horizontal=1;startSize=26;fillColor=#ffffff;horizontalStack=0;resizeParent=1;resizeParentMax=0;resizeLast=0;collapsible=1;marginBottom=0;swimlaneFillColor=#ffffff;fontSize=14;" parent="e2F7vwqkQ3G3IU7HkBEM-90" vertex="1">
          <mxGeometry width="140" height="106" as="geometry">
            <mxRectangle x="200" y="200" width="80" height="26" as="alternateBounds" />
          </mxGeometry>
        </mxCell>
        <mxCell id="e2F7vwqkQ3G3IU7HkBEM-88" value="Project" style="swimlane;fontStyle=0;childLayout=stackLayout;horizontal=1;startSize=26;fillColor=#ffffff;horizontalStack=0;resizeParent=1;resizeParentMax=0;resizeLast=0;collapsible=1;marginBottom=0;swimlaneFillColor=#ffffff;fontSize=14;" parent="e2F7vwqkQ3G3IU7HkBEM-78" vertex="1">
          <mxGeometry y="26" width="140" height="80" as="geometry">
            <mxRectangle x="200" y="200" width="80" height="26" as="alternateBounds" />
          </mxGeometry>
        </mxCell>
        <mxCell id="e2F7vwqkQ3G3IU7HkBEM-92" value="Agreement" style="swimlane;fontStyle=0;childLayout=stackLayout;horizontal=1;startSize=26;fillColor=#ffffff;horizontalStack=0;resizeParent=1;resizeParentMax=0;resizeLast=0;collapsible=1;marginBottom=0;swimlaneFillColor=#ffffff;fontSize=14;" parent="e2F7vwqkQ3G3IU7HkBEM-88" vertex="1">
          <mxGeometry y="26" width="140" height="54" as="geometry">
            <mxRectangle x="200" y="200" width="80" height="26" as="alternateBounds" />
          </mxGeometry>
        </mxCell>
        <mxCell id="e2F7vwqkQ3G3IU7HkBEM-93" value="Tags" style="text;html=1;strokeColor=none;fillColor=none;align=center;verticalAlign=middle;whiteSpace=wrap;rounded=0;fontSize=14;" parent="1" vertex="1">
          <mxGeometry x="696" y="20" width="40" height="20" as="geometry" />
        </mxCell>
        <mxCell id="e2F7vwqkQ3G3IU7HkBEM-21" value="Events" style="swimlane;fontStyle=0;childLayout=stackLayout;horizontal=1;startSize=26;fillColor=#ffffff;horizontalStack=0;resizeParent=1;resizeParentMax=0;resizeLast=0;collapsible=1;marginBottom=0;swimlaneFillColor=#ffffff;fontSize=14;" parent="1" vertex="1">
          <mxGeometry x="648" y="340" width="140" height="156" as="geometry">
            <mxRectangle x="200" y="110" width="80" height="26" as="alternateBounds" />
          </mxGeometry>
        </mxCell>
        <mxCell id="e2F7vwqkQ3G3IU7HkBEM-22" value="id" style="text;strokeColor=none;fillColor=none;align=left;verticalAlign=top;spacingLeft=4;spacingRight=4;overflow=hidden;rotatable=0;points=[[0,0.5],[1,0.5]];portConstraint=eastwest;fontSize=14;" parent="e2F7vwqkQ3G3IU7HkBEM-21" vertex="1">
          <mxGeometry y="26" width="140" height="26" as="geometry" />
        </mxCell>
        <mxCell id="e2F7vwqkQ3G3IU7HkBEM-23" value="status" style="text;strokeColor=none;fillColor=none;align=left;verticalAlign=top;spacingLeft=4;spacingRight=4;overflow=hidden;rotatable=0;points=[[0,0.5],[1,0.5]];portConstraint=eastwest;fontSize=14;" parent="e2F7vwqkQ3G3IU7HkBEM-21" vertex="1">
          <mxGeometry y="52" width="140" height="26" as="geometry" />
        </mxCell>
        <mxCell id="e2F7vwqkQ3G3IU7HkBEM-25" value="date" style="text;strokeColor=none;fillColor=none;align=left;verticalAlign=top;spacingLeft=4;spacingRight=4;overflow=hidden;rotatable=0;points=[[0,0.5],[1,0.5]];portConstraint=eastwest;fontSize=14;" parent="e2F7vwqkQ3G3IU7HkBEM-21" vertex="1">
          <mxGeometry y="78" width="140" height="26" as="geometry" />
        </mxCell>
        <mxCell id="e2F7vwqkQ3G3IU7HkBEM-69" value="event_type_id" style="text;strokeColor=none;fillColor=none;align=left;verticalAlign=top;spacingLeft=4;spacingRight=4;overflow=hidden;rotatable=0;points=[[0,0.5],[1,0.5]];portConstraint=eastwest;fontSize=14;" parent="e2F7vwqkQ3G3IU7HkBEM-21" vertex="1">
          <mxGeometry y="104" width="140" height="26" as="geometry" />
        </mxCell>
        <mxCell id="e2F7vwqkQ3G3IU7HkBEM-24" value="payload" style="text;strokeColor=none;fillColor=none;align=left;verticalAlign=top;spacingLeft=4;spacingRight=4;overflow=hidden;rotatable=0;points=[[0,0.5],[1,0.5]];portConstraint=eastwest;fontSize=14;" parent="e2F7vwqkQ3G3IU7HkBEM-21" vertex="1">
          <mxGeometry y="130" width="140" height="26" as="geometry" />
        </mxCell>
        <mxCell id="e2F7vwqkQ3G3IU7HkBEM-17" value="EventTypes" style="swimlane;fontStyle=0;childLayout=stackLayout;horizontal=1;startSize=26;fillColor=#ffffff;horizontalStack=0;resizeParent=1;resizeParentMax=0;resizeLast=0;collapsible=1;marginBottom=0;swimlaneFillColor=#ffffff;fontSize=14;" parent="1" vertex="1">
          <mxGeometry x="652" y="230" width="140" height="78" as="geometry">
            <mxRectangle x="200" y="110" width="80" height="26" as="alternateBounds" />
          </mxGeometry>
        </mxCell>
        <mxCell id="e2F7vwqkQ3G3IU7HkBEM-18" value="id" style="text;strokeColor=none;fillColor=none;align=left;verticalAlign=top;spacingLeft=4;spacingRight=4;overflow=hidden;rotatable=0;points=[[0,0.5],[1,0.5]];portConstraint=eastwest;fontSize=14;" parent="e2F7vwqkQ3G3IU7HkBEM-17" vertex="1">
          <mxGeometry y="26" width="140" height="26" as="geometry" />
        </mxCell>
        <mxCell id="e2F7vwqkQ3G3IU7HkBEM-19" value="name" style="text;strokeColor=none;fillColor=none;align=left;verticalAlign=top;spacingLeft=4;spacingRight=4;overflow=hidden;rotatable=0;points=[[0,0.5],[1,0.5]];portConstraint=eastwest;fontSize=14;" parent="e2F7vwqkQ3G3IU7HkBEM-17" vertex="1">
          <mxGeometry y="52" width="140" height="26" as="geometry" />
        </mxCell>
        <mxCell id="e2F7vwqkQ3G3IU7HkBEM-94" value="BaseAccounts" style="swimlane;fontStyle=0;childLayout=stackLayout;horizontal=1;startSize=26;fillColor=#ffffff;horizontalStack=0;resizeParent=1;resizeParentMax=0;resizeLast=0;collapsible=1;marginBottom=0;swimlaneFillColor=#ffffff;fontSize=14;" parent="1" vertex="1">
          <mxGeometry x="20" y="392" width="140" height="104" as="geometry">
            <mxRectangle x="200" y="200" width="80" height="26" as="alternateBounds" />
          </mxGeometry>
        </mxCell>
        <mxCell id="e2F7vwqkQ3G3IU7HkBEM-95" value="id" style="text;strokeColor=none;fillColor=none;align=left;verticalAlign=top;spacingLeft=4;spacingRight=4;overflow=hidden;rotatable=0;points=[[0,0.5],[1,0.5]];portConstraint=eastwest;fontSize=14;" parent="e2F7vwqkQ3G3IU7HkBEM-94" vertex="1">
          <mxGeometry y="26" width="140" height="26" as="geometry" />
        </mxCell>
        <mxCell id="e2F7vwqkQ3G3IU7HkBEM-96" value="name" style="text;strokeColor=none;fillColor=none;align=left;verticalAlign=top;spacingLeft=4;spacingRight=4;overflow=hidden;rotatable=0;points=[[0,0.5],[1,0.5]];portConstraint=eastwest;fontSize=14;" parent="e2F7vwqkQ3G3IU7HkBEM-94" vertex="1">
          <mxGeometry y="52" width="140" height="26" as="geometry" />
        </mxCell>
        <mxCell id="e2F7vwqkQ3G3IU7HkBEM-98" value="kind" style="text;strokeColor=none;fillColor=none;align=left;verticalAlign=top;spacingLeft=4;spacingRight=4;overflow=hidden;rotatable=0;points=[[0,0.5],[1,0.5]];portConstraint=eastwest;fontSize=14;" parent="e2F7vwqkQ3G3IU7HkBEM-94" vertex="1">
          <mxGeometry y="78" width="140" height="26" as="geometry" />
        </mxCell>
        <mxCell id="bCxZbBtF5jadTz3_KmkX-21" value="" style="endArrow=ERmany;html=1;exitX=1;exitY=0.5;exitDx=0;exitDy=0;entryX=0;entryY=0.5;entryDx=0;entryDy=0;edgeStyle=orthogonalEdgeStyle;endFill=0;" parent="1" source="bCxZbBtF5jadTz3_KmkX-13" target="bCxZbBtF5jadTz3_KmkX-16" edge="1">
          <mxGeometry width="50" height="50" relative="1" as="geometry">
            <mxPoint x="1510" y="410" as="sourcePoint" />
            <mxPoint x="1560" y="360" as="targetPoint" />
          </mxGeometry>
        </mxCell>
        <mxCell id="bCxZbBtF5jadTz3_KmkX-22" value="" style="endArrow=ERmany;html=1;exitX=0;exitY=0.5;exitDx=0;exitDy=0;entryX=1;entryY=0.5;entryDx=0;entryDy=0;edgeStyle=orthogonalEdgeStyle;endFill=0;" parent="1" source="bCxZbBtF5jadTz3_KmkX-19" target="bCxZbBtF5jadTz3_KmkX-16" edge="1">
          <mxGeometry width="50" height="50" relative="1" as="geometry">
            <mxPoint x="1410" y="151" as="sourcePoint" />
            <mxPoint x="1500" y="177" as="targetPoint" />
          </mxGeometry>
        </mxCell>
        <mxCell id="bCxZbBtF5jadTz3_KmkX-33" value="" style="endArrow=ERmany;html=1;exitX=0;exitY=0.5;exitDx=0;exitDy=0;entryX=1;entryY=0.5;entryDx=0;entryDy=0;edgeStyle=orthogonalEdgeStyle;endFill=0;" parent="1" source="bCxZbBtF5jadTz3_KmkX-30" target="bCxZbBtF5jadTz3_KmkX-26" edge="1">
          <mxGeometry width="50" height="50" relative="1" as="geometry">
            <mxPoint x="1700" y="151" as="sourcePoint" />
            <mxPoint x="1640" y="177" as="targetPoint" />
          </mxGeometry>
        </mxCell>
        <mxCell id="bCxZbBtF5jadTz3_KmkX-34" value="" style="endArrow=ERmany;html=1;entryX=0.5;entryY=0;entryDx=0;entryDy=0;edgeStyle=orthogonalEdgeStyle;endFill=0;" parent="1" source="bCxZbBtF5jadTz3_KmkX-20" target="bCxZbBtF5jadTz3_KmkX-28" edge="1">
          <mxGeometry width="50" height="50" relative="1" as="geometry">
            <mxPoint x="1700" y="415" as="sourcePoint" />
            <mxPoint x="1640" y="415" as="targetPoint" />
            <Array as="points">
              <mxPoint x="1760" y="240" />
              <mxPoint x="1760" y="240" />
            </Array>
          </mxGeometry>
        </mxCell>
        <mxCell id="fS8NNH9jHNJrWvq1IYAq-1" value="Покупка товаров" style="rounded=1;whiteSpace=wrap;html=1;fontSize=14;" vertex="1" parent="1">
          <mxGeometry x="40" y="1030" width="240" height="90" as="geometry" />
        </mxCell>
        <mxCell id="fS8NNH9jHNJrWvq1IYAq-4" value="&lt;ul&gt;&lt;li&gt;&lt;span&gt;Дата оплаты&lt;/span&gt;&lt;br&gt;&lt;/li&gt;&lt;li&gt;&lt;span&gt;Оплачено?&lt;/span&gt;&lt;/li&gt;&lt;li&gt;Дата поступления товара - надо ли?&lt;/li&gt;&lt;li&gt;Товар пришел? - надо ли?&lt;/li&gt;&lt;li&gt;Товары для реализации / Для списания&amp;nbsp; / ОС&lt;br&gt;&lt;/li&gt;&lt;li&gt;Счет - банк / касса / суб. счет?&lt;/li&gt;&lt;li&gt;Статья ДДС&lt;/li&gt;&lt;li&gt;Сумма&lt;/li&gt;&lt;li&gt;Партнер&lt;/li&gt;&lt;li&gt;Описание&lt;/li&gt;&lt;li&gt;Скан&lt;/li&gt;&lt;/ul&gt;" style="text;strokeColor=none;fillColor=none;html=1;whiteSpace=wrap;verticalAlign=middle;overflow=hidden;fontSize=14;" vertex="1" parent="1">
          <mxGeometry x="40" y="1230" width="420" height="200" as="geometry" />
        </mxCell>
        <mxCell id="fS8NNH9jHNJrWvq1IYAq-66" value="" style="endArrow=classic;html=1;fontSize=14;exitX=1;exitY=0.5;exitDx=0;exitDy=0;entryX=0;entryY=0.5;entryDx=0;entryDy=0;" edge="1" parent="1" source="fS8NNH9jHNJrWvq1IYAq-1" target="fS8NNH9jHNJrWvq1IYAq-68">
          <mxGeometry width="50" height="50" relative="1" as="geometry">
            <mxPoint x="480" y="1260" as="sourcePoint" />
            <mxPoint x="380" y="1028.125" as="targetPoint" />
          </mxGeometry>
        </mxCell>
        <mxCell id="fS8NNH9jHNJrWvq1IYAq-73" value="Если товар для реализации" style="edgeLabel;html=1;align=center;verticalAlign=middle;resizable=0;points=[];fontSize=12;" vertex="1" connectable="0" parent="fS8NNH9jHNJrWvq1IYAq-66">
          <mxGeometry x="0.1918" y="3" relative="1" as="geometry">
            <mxPoint x="-13.33" y="5.38" as="offset" />
          </mxGeometry>
        </mxCell>
        <mxCell id="fS8NNH9jHNJrWvq1IYAq-68" value="Продать" style="rounded=1;whiteSpace=wrap;html=1;fontSize=14;" vertex="1" parent="1">
          <mxGeometry x="506" y="960" width="190" height="70" as="geometry" />
        </mxCell>
        <mxCell id="fS8NNH9jHNJrWvq1IYAq-5" value="" style="shape=table;html=1;whiteSpace=wrap;startSize=0;container=1;collapsible=0;childLayout=tableLayout;fontSize=14;" vertex="1" parent="1">
          <mxGeometry x="40" y="1440" width="876" height="200" as="geometry" />
        </mxCell>
        <mxCell id="fS8NNH9jHNJrWvq1IYAq-6" value="" style="shape=partialRectangle;html=1;whiteSpace=wrap;collapsible=0;dropTarget=0;pointerEvents=0;fillColor=none;top=0;left=0;bottom=0;right=0;points=[[0,0.5],[1,0.5]];portConstraint=eastwest;" vertex="1" parent="fS8NNH9jHNJrWvq1IYAq-5">
          <mxGeometry width="876" height="40" as="geometry" />
        </mxCell>
        <mxCell id="fS8NNH9jHNJrWvq1IYAq-7" value="Тип" style="shape=partialRectangle;html=1;whiteSpace=wrap;connectable=0;fillColor=none;top=0;left=0;bottom=0;right=0;overflow=hidden;" vertex="1" parent="fS8NNH9jHNJrWvq1IYAq-6">
          <mxGeometry width="246" height="40" as="geometry" />
        </mxCell>
        <mxCell id="fS8NNH9jHNJrWvq1IYAq-8" value="Дт" style="shape=partialRectangle;html=1;whiteSpace=wrap;connectable=0;fillColor=none;top=0;left=0;bottom=0;right=0;overflow=hidden;" vertex="1" parent="fS8NNH9jHNJrWvq1IYAq-6">
          <mxGeometry x="246" width="218" height="40" as="geometry" />
        </mxCell>
        <mxCell id="fS8NNH9jHNJrWvq1IYAq-9" value="Кт" style="shape=partialRectangle;html=1;whiteSpace=wrap;connectable=0;fillColor=none;top=0;left=0;bottom=0;right=0;overflow=hidden;" vertex="1" parent="fS8NNH9jHNJrWvq1IYAq-6">
          <mxGeometry x="464" width="206" height="40" as="geometry" />
        </mxCell>
        <mxCell id="fS8NNH9jHNJrWvq1IYAq-146" value="Apply" style="shape=partialRectangle;html=1;whiteSpace=wrap;connectable=0;fillColor=none;top=0;left=0;bottom=0;right=0;overflow=hidden;" vertex="1" parent="fS8NNH9jHNJrWvq1IYAq-6">
          <mxGeometry x="670" width="206" height="40" as="geometry" />
        </mxCell>
        <mxCell id="fS8NNH9jHNJrWvq1IYAq-10" value="" style="shape=partialRectangle;html=1;whiteSpace=wrap;collapsible=0;dropTarget=0;pointerEvents=0;fillColor=none;top=0;left=0;bottom=0;right=0;points=[[0,0.5],[1,0.5]];portConstraint=eastwest;" vertex="1" parent="fS8NNH9jHNJrWvq1IYAq-5">
          <mxGeometry y="40" width="876" height="40" as="geometry" />
        </mxCell>
        <mxCell id="fS8NNH9jHNJrWvq1IYAq-11" value="Товары для реализации" style="shape=partialRectangle;html=1;whiteSpace=wrap;connectable=0;fillColor=none;top=0;left=0;bottom=0;right=0;overflow=hidden;" vertex="1" parent="fS8NNH9jHNJrWvq1IYAq-10">
          <mxGeometry width="246" height="40" as="geometry" />
        </mxCell>
        <mxCell id="fS8NNH9jHNJrWvq1IYAq-12" value="41 Товары, продукция" style="shape=partialRectangle;html=1;whiteSpace=wrap;connectable=0;fillColor=none;top=0;left=0;bottom=0;right=0;overflow=hidden;" vertex="1" parent="fS8NNH9jHNJrWvq1IYAq-10">
          <mxGeometry x="246" width="218" height="40" as="geometry" />
        </mxCell>
        <mxCell id="fS8NNH9jHNJrWvq1IYAq-13" value="60.01 Расчеты с поставщиками" style="shape=partialRectangle;html=1;whiteSpace=wrap;connectable=0;fillColor=none;top=0;left=0;bottom=0;right=0;overflow=hidden;" vertex="1" parent="fS8NNH9jHNJrWvq1IYAq-10">
          <mxGeometry x="464" width="206" height="40" as="geometry" />
        </mxCell>
        <mxCell id="fS8NNH9jHNJrWvq1IYAq-147" value="&lt;span&gt;Товар пришел - нет - false&lt;br&gt;&lt;/span&gt;Товар пришел&amp;nbsp;- да - true&lt;span&gt;&lt;br&gt;&lt;/span&gt;" style="shape=partialRectangle;html=1;whiteSpace=wrap;connectable=0;fillColor=none;top=0;left=0;bottom=0;right=0;overflow=hidden;" vertex="1" parent="fS8NNH9jHNJrWvq1IYAq-10">
          <mxGeometry x="670" width="206" height="40" as="geometry" />
        </mxCell>
        <mxCell id="fS8NNH9jHNJrWvq1IYAq-60" style="shape=partialRectangle;html=1;whiteSpace=wrap;collapsible=0;dropTarget=0;pointerEvents=0;fillColor=none;top=0;left=0;bottom=0;right=0;points=[[0,0.5],[1,0.5]];portConstraint=eastwest;" vertex="1" parent="fS8NNH9jHNJrWvq1IYAq-5">
          <mxGeometry y="80" width="876" height="40" as="geometry" />
        </mxCell>
        <mxCell id="fS8NNH9jHNJrWvq1IYAq-61" value="&lt;span&gt;Для списания&lt;/span&gt;" style="shape=partialRectangle;html=1;whiteSpace=wrap;connectable=0;fillColor=none;top=0;left=0;bottom=0;right=0;overflow=hidden;" vertex="1" parent="fS8NNH9jHNJrWvq1IYAq-60">
          <mxGeometry width="246" height="40" as="geometry" />
        </mxCell>
        <mxCell id="fS8NNH9jHNJrWvq1IYAq-62" value="10 Сырье и материалы" style="shape=partialRectangle;html=1;whiteSpace=wrap;connectable=0;fillColor=none;top=0;left=0;bottom=0;right=0;overflow=hidden;" vertex="1" parent="fS8NNH9jHNJrWvq1IYAq-60">
          <mxGeometry x="246" width="218" height="40" as="geometry" />
        </mxCell>
        <mxCell id="fS8NNH9jHNJrWvq1IYAq-63" value="&lt;span&gt;60.01 Расчеты с поставщиками&lt;/span&gt;" style="shape=partialRectangle;html=1;whiteSpace=wrap;connectable=0;fillColor=none;top=0;left=0;bottom=0;right=0;overflow=hidden;" vertex="1" parent="fS8NNH9jHNJrWvq1IYAq-60">
          <mxGeometry x="464" width="206" height="40" as="geometry" />
        </mxCell>
        <mxCell id="fS8NNH9jHNJrWvq1IYAq-148" value="Товар пришел&lt;span&gt;&amp;nbsp;- нет - false&lt;br&gt;&lt;/span&gt;Товар пришел&lt;span&gt;&amp;nbsp;- да - true&lt;/span&gt;" style="shape=partialRectangle;html=1;whiteSpace=wrap;connectable=0;fillColor=none;top=0;left=0;bottom=0;right=0;overflow=hidden;" vertex="1" parent="fS8NNH9jHNJrWvq1IYAq-60">
          <mxGeometry x="670" width="206" height="40" as="geometry" />
        </mxCell>
        <mxCell id="fS8NNH9jHNJrWvq1IYAq-56" style="shape=partialRectangle;html=1;whiteSpace=wrap;collapsible=0;dropTarget=0;pointerEvents=0;fillColor=none;top=0;left=0;bottom=0;right=0;points=[[0,0.5],[1,0.5]];portConstraint=eastwest;" vertex="1" parent="fS8NNH9jHNJrWvq1IYAq-5">
          <mxGeometry y="120" width="876" height="40" as="geometry" />
        </mxCell>
        <mxCell id="fS8NNH9jHNJrWvq1IYAq-57" value="&lt;span&gt;ОС&lt;/span&gt;" style="shape=partialRectangle;html=1;whiteSpace=wrap;connectable=0;fillColor=none;top=0;left=0;bottom=0;right=0;overflow=hidden;" vertex="1" parent="fS8NNH9jHNJrWvq1IYAq-56">
          <mxGeometry width="246" height="40" as="geometry" />
        </mxCell>
        <mxCell id="fS8NNH9jHNJrWvq1IYAq-58" value="01 Имущество" style="shape=partialRectangle;html=1;whiteSpace=wrap;connectable=0;fillColor=none;top=0;left=0;bottom=0;right=0;overflow=hidden;" vertex="1" parent="fS8NNH9jHNJrWvq1IYAq-56">
          <mxGeometry x="246" width="218" height="40" as="geometry" />
        </mxCell>
        <mxCell id="fS8NNH9jHNJrWvq1IYAq-59" value="&lt;span&gt;60.01 Расчеты с поставщиками&lt;/span&gt;" style="shape=partialRectangle;html=1;whiteSpace=wrap;connectable=0;fillColor=none;top=0;left=0;bottom=0;right=0;overflow=hidden;" vertex="1" parent="fS8NNH9jHNJrWvq1IYAq-56">
          <mxGeometry x="464" width="206" height="40" as="geometry" />
        </mxCell>
        <mxCell id="fS8NNH9jHNJrWvq1IYAq-149" value="Товар пришел&lt;span&gt;&amp;nbsp;- нет - false&lt;br&gt;&lt;/span&gt;Товар пришел&lt;span&gt;&amp;nbsp;- да - true&lt;/span&gt;" style="shape=partialRectangle;html=1;whiteSpace=wrap;connectable=0;fillColor=none;top=0;left=0;bottom=0;right=0;overflow=hidden;" vertex="1" parent="fS8NNH9jHNJrWvq1IYAq-56">
          <mxGeometry x="670" width="206" height="40" as="geometry" />
        </mxCell>
        <mxCell id="fS8NNH9jHNJrWvq1IYAq-14" value="" style="shape=partialRectangle;html=1;whiteSpace=wrap;collapsible=0;dropTarget=0;pointerEvents=0;fillColor=none;top=0;left=0;bottom=0;right=0;points=[[0,0.5],[1,0.5]];portConstraint=eastwest;" vertex="1" parent="fS8NNH9jHNJrWvq1IYAq-5">
          <mxGeometry y="160" width="876" height="40" as="geometry" />
        </mxCell>
        <mxCell id="fS8NNH9jHNJrWvq1IYAq-15" value="" style="shape=partialRectangle;html=1;whiteSpace=wrap;connectable=0;fillColor=none;top=0;left=0;bottom=0;right=0;overflow=hidden;" vertex="1" parent="fS8NNH9jHNJrWvq1IYAq-14">
          <mxGeometry width="246" height="40" as="geometry" />
        </mxCell>
        <mxCell id="fS8NNH9jHNJrWvq1IYAq-16" value="&lt;span&gt;60.01 Расчеты с поставщиками&lt;/span&gt;" style="shape=partialRectangle;html=1;whiteSpace=wrap;connectable=0;fillColor=none;top=0;left=0;bottom=0;right=0;overflow=hidden;" vertex="1" parent="fS8NNH9jHNJrWvq1IYAq-14">
          <mxGeometry x="246" width="218" height="40" as="geometry" />
        </mxCell>
        <mxCell id="fS8NNH9jHNJrWvq1IYAq-17" value="51 Банк (или то, что выбрано в событии)" style="shape=partialRectangle;html=1;whiteSpace=wrap;connectable=0;fillColor=none;top=0;left=0;bottom=0;right=0;overflow=hidden;" vertex="1" parent="fS8NNH9jHNJrWvq1IYAq-14">
          <mxGeometry x="464" width="206" height="40" as="geometry" />
        </mxCell>
        <mxCell id="fS8NNH9jHNJrWvq1IYAq-150" value="&lt;span&gt;Оплачено - нет - false&lt;br&gt;&lt;/span&gt;&lt;span&gt;Оплачено - да - true&lt;/span&gt;" style="shape=partialRectangle;html=1;whiteSpace=wrap;connectable=0;fillColor=none;top=0;left=0;bottom=0;right=0;overflow=hidden;" vertex="1" parent="fS8NNH9jHNJrWvq1IYAq-14">
          <mxGeometry x="670" width="206" height="40" as="geometry" />
        </mxCell>
        <mxCell id="fS8NNH9jHNJrWvq1IYAq-69" value="Списать" style="rounded=1;whiteSpace=wrap;html=1;fontSize=14;" vertex="1" parent="1">
          <mxGeometry x="506" y="1120" width="190" height="70" as="geometry" />
        </mxCell>
        <mxCell id="fS8NNH9jHNJrWvq1IYAq-71" value="" style="endArrow=classic;html=1;fontSize=14;exitX=1;exitY=0.5;exitDx=0;exitDy=0;entryX=0;entryY=0.5;entryDx=0;entryDy=0;" edge="1" parent="1" source="fS8NNH9jHNJrWvq1IYAq-1" target="fS8NNH9jHNJrWvq1IYAq-69">
          <mxGeometry width="50" height="50" relative="1" as="geometry">
            <mxPoint x="290" y="1085" as="sourcePoint" />
            <mxPoint x="370" y="1005" as="targetPoint" />
          </mxGeometry>
        </mxCell>
        <mxCell id="fS8NNH9jHNJrWvq1IYAq-74" value="Если товар для списания" style="edgeLabel;html=1;align=center;verticalAlign=middle;resizable=0;points=[];fontSize=12;" vertex="1" connectable="0" parent="fS8NNH9jHNJrWvq1IYAq-71">
          <mxGeometry x="-0.0374" y="-3" relative="1" as="geometry">
            <mxPoint as="offset" />
          </mxGeometry>
        </mxCell>
        <mxCell id="fS8NNH9jHNJrWvq1IYAq-75" value="Оплата услуги" style="rounded=1;whiteSpace=wrap;html=1;fontSize=14;" vertex="1" parent="1">
          <mxGeometry x="1120" y="1030" width="240" height="90" as="geometry" />
        </mxCell>
        <mxCell id="fS8NNH9jHNJrWvq1IYAq-76" value="&lt;ul&gt;&lt;li&gt;&lt;span&gt;Дата оплаты&lt;/span&gt;&lt;br&gt;&lt;/li&gt;&lt;li&gt;&lt;span&gt;Оплачено?&lt;/span&gt;&lt;/li&gt;&lt;li&gt;Дата оказания услуги - надо ли?&lt;/li&gt;&lt;li&gt;Товар пришел? - надо ли?&lt;/li&gt;&lt;li&gt;Счет - банк / касса / суб. счет?&lt;/li&gt;&lt;li&gt;Статья ДДС&lt;/li&gt;&lt;li&gt;Сумма&lt;/li&gt;&lt;li&gt;Партнер&lt;/li&gt;&lt;li&gt;Описание&lt;/li&gt;&lt;li&gt;Скан&lt;/li&gt;&lt;/ul&gt;" style="text;strokeColor=none;fillColor=none;html=1;whiteSpace=wrap;verticalAlign=middle;overflow=hidden;fontSize=14;" vertex="1" parent="1">
          <mxGeometry x="1120" y="1160" width="420" height="200" as="geometry" />
        </mxCell>
        <mxCell id="fS8NNH9jHNJrWvq1IYAq-120" value="Продажа товаров" style="rounded=1;whiteSpace=wrap;html=1;fontSize=14;" vertex="1" parent="1">
          <mxGeometry x="40" y="1760" width="240" height="90" as="geometry" />
        </mxCell>
        <mxCell id="fS8NNH9jHNJrWvq1IYAq-77" value="" style="shape=table;html=1;whiteSpace=wrap;startSize=0;container=1;collapsible=0;childLayout=tableLayout;fontSize=14;" vertex="1" parent="1">
          <mxGeometry x="1120" y="1390" width="630" height="120" as="geometry" />
        </mxCell>
        <mxCell id="fS8NNH9jHNJrWvq1IYAq-78" value="" style="shape=partialRectangle;html=1;whiteSpace=wrap;collapsible=0;dropTarget=0;pointerEvents=0;fillColor=none;top=0;left=0;bottom=0;right=0;points=[[0,0.5],[1,0.5]];portConstraint=eastwest;" vertex="1" parent="fS8NNH9jHNJrWvq1IYAq-77">
          <mxGeometry width="630" height="40" as="geometry" />
        </mxCell>
        <mxCell id="fS8NNH9jHNJrWvq1IYAq-80" value="Дт" style="shape=partialRectangle;html=1;whiteSpace=wrap;connectable=0;fillColor=none;top=0;left=0;bottom=0;right=0;overflow=hidden;" vertex="1" parent="fS8NNH9jHNJrWvq1IYAq-78">
          <mxGeometry width="218" height="40" as="geometry" />
        </mxCell>
        <mxCell id="fS8NNH9jHNJrWvq1IYAq-81" value="Кт" style="shape=partialRectangle;html=1;whiteSpace=wrap;connectable=0;fillColor=none;top=0;left=0;bottom=0;right=0;overflow=hidden;" vertex="1" parent="fS8NNH9jHNJrWvq1IYAq-78">
          <mxGeometry x="218" width="206" height="40" as="geometry" />
        </mxCell>
        <mxCell id="fS8NNH9jHNJrWvq1IYAq-143" value="Apply" style="shape=partialRectangle;html=1;whiteSpace=wrap;connectable=0;fillColor=none;top=0;left=0;bottom=0;right=0;overflow=hidden;" vertex="1" parent="fS8NNH9jHNJrWvq1IYAq-78">
          <mxGeometry x="424" width="206" height="40" as="geometry" />
        </mxCell>
        <mxCell id="fS8NNH9jHNJrWvq1IYAq-82" value="" style="shape=partialRectangle;html=1;whiteSpace=wrap;collapsible=0;dropTarget=0;pointerEvents=0;fillColor=none;top=0;left=0;bottom=0;right=0;points=[[0,0.5],[1,0.5]];portConstraint=eastwest;" vertex="1" parent="fS8NNH9jHNJrWvq1IYAq-77">
          <mxGeometry y="40" width="630" height="40" as="geometry" />
        </mxCell>
        <mxCell id="fS8NNH9jHNJrWvq1IYAq-84" value="90.07 Товары, продукция" style="shape=partialRectangle;html=1;whiteSpace=wrap;connectable=0;fillColor=none;top=0;left=0;bottom=0;right=0;overflow=hidden;" vertex="1" parent="fS8NNH9jHNJrWvq1IYAq-82">
          <mxGeometry width="218" height="40" as="geometry" />
        </mxCell>
        <mxCell id="fS8NNH9jHNJrWvq1IYAq-85" value="60.01 Расчеты с поставщиками" style="shape=partialRectangle;html=1;whiteSpace=wrap;connectable=0;fillColor=none;top=0;left=0;bottom=0;right=0;overflow=hidden;" vertex="1" parent="fS8NNH9jHNJrWvq1IYAq-82">
          <mxGeometry x="218" width="206" height="40" as="geometry" />
        </mxCell>
        <mxCell id="fS8NNH9jHNJrWvq1IYAq-144" value="Товар пришел - да - true&lt;br&gt;Товар пришел - нет - false" style="shape=partialRectangle;html=1;whiteSpace=wrap;connectable=0;fillColor=none;top=0;left=0;bottom=0;right=0;overflow=hidden;" vertex="1" parent="fS8NNH9jHNJrWvq1IYAq-82">
          <mxGeometry x="424" width="206" height="40" as="geometry" />
        </mxCell>
        <mxCell id="fS8NNH9jHNJrWvq1IYAq-94" value="" style="shape=partialRectangle;html=1;whiteSpace=wrap;collapsible=0;dropTarget=0;pointerEvents=0;fillColor=none;top=0;left=0;bottom=0;right=0;points=[[0,0.5],[1,0.5]];portConstraint=eastwest;" vertex="1" parent="fS8NNH9jHNJrWvq1IYAq-77">
          <mxGeometry y="80" width="630" height="40" as="geometry" />
        </mxCell>
        <mxCell id="fS8NNH9jHNJrWvq1IYAq-96" value="&lt;span&gt;60.01 Расчеты с поставщиками&lt;/span&gt;" style="shape=partialRectangle;html=1;whiteSpace=wrap;connectable=0;fillColor=none;top=0;left=0;bottom=0;right=0;overflow=hidden;" vertex="1" parent="fS8NNH9jHNJrWvq1IYAq-94">
          <mxGeometry width="218" height="40" as="geometry" />
        </mxCell>
        <mxCell id="fS8NNH9jHNJrWvq1IYAq-97" value="51 Банк&amp;nbsp;(или то, что выбрано в событии)" style="shape=partialRectangle;html=1;whiteSpace=wrap;connectable=0;fillColor=none;top=0;left=0;bottom=0;right=0;overflow=hidden;" vertex="1" parent="fS8NNH9jHNJrWvq1IYAq-94">
          <mxGeometry x="218" width="206" height="40" as="geometry" />
        </mxCell>
        <mxCell id="fS8NNH9jHNJrWvq1IYAq-145" value="&lt;span&gt;Оплачено - нет&amp;nbsp; - false&lt;br&gt;&lt;/span&gt;&lt;span&gt;Оплачено - да - true&lt;/span&gt;" style="shape=partialRectangle;html=1;whiteSpace=wrap;connectable=0;fillColor=none;top=0;left=0;bottom=0;right=0;overflow=hidden;" vertex="1" parent="fS8NNH9jHNJrWvq1IYAq-94">
          <mxGeometry x="424" width="206" height="40" as="geometry" />
        </mxCell>
        <mxCell id="fS8NNH9jHNJrWvq1IYAq-121" value="&lt;ul&gt;&lt;li&gt;&lt;span&gt;Дата поступления денег&lt;/span&gt;&lt;br&gt;&lt;/li&gt;&lt;li&gt;&lt;span&gt;Деньги пришли?&lt;/span&gt;&lt;/li&gt;&lt;li&gt;Дата отгрузки товара - надо ли?&lt;/li&gt;&lt;li&gt;Товар отгружен? - надо ли?&lt;/li&gt;&lt;li&gt;Счет - банк / касса / суб. счет?&lt;/li&gt;&lt;li&gt;Статья ДДС (по умолчанию - Оплата от покупателей)&lt;/li&gt;&lt;li&gt;Сумма (Себестоимость)&lt;/li&gt;&lt;li&gt;Сумма продажи&lt;/li&gt;&lt;li&gt;Партнер&lt;/li&gt;&lt;li&gt;Описание&lt;/li&gt;&lt;li&gt;Скан&lt;/li&gt;&lt;/ul&gt;" style="text;strokeColor=none;fillColor=none;html=1;whiteSpace=wrap;verticalAlign=middle;overflow=hidden;fontSize=14;" vertex="1" parent="1">
          <mxGeometry x="40" y="1880" width="420" height="200" as="geometry" />
        </mxCell>
        <mxCell id="fS8NNH9jHNJrWvq1IYAq-122" value="" style="shape=table;html=1;whiteSpace=wrap;startSize=0;container=1;collapsible=0;childLayout=tableLayout;fontSize=14;" vertex="1" parent="1">
          <mxGeometry x="40" y="2090" width="836" height="160" as="geometry" />
        </mxCell>
        <mxCell id="fS8NNH9jHNJrWvq1IYAq-123" value="" style="shape=partialRectangle;html=1;whiteSpace=wrap;collapsible=0;dropTarget=0;pointerEvents=0;fillColor=none;top=0;left=0;bottom=0;right=0;points=[[0,0.5],[1,0.5]];portConstraint=eastwest;" vertex="1" parent="fS8NNH9jHNJrWvq1IYAq-122">
          <mxGeometry width="836" height="40" as="geometry" />
        </mxCell>
        <mxCell id="fS8NNH9jHNJrWvq1IYAq-125" value="Дт" style="shape=partialRectangle;html=1;whiteSpace=wrap;connectable=0;fillColor=none;top=0;left=0;bottom=0;right=0;overflow=hidden;" vertex="1" parent="fS8NNH9jHNJrWvq1IYAq-123">
          <mxGeometry width="218" height="40" as="geometry" />
        </mxCell>
        <mxCell id="fS8NNH9jHNJrWvq1IYAq-126" value="Кт" style="shape=partialRectangle;html=1;whiteSpace=wrap;connectable=0;fillColor=none;top=0;left=0;bottom=0;right=0;overflow=hidden;" vertex="1" parent="fS8NNH9jHNJrWvq1IYAq-123">
          <mxGeometry x="218" width="206" height="40" as="geometry" />
        </mxCell>
        <mxCell id="fS8NNH9jHNJrWvq1IYAq-151" value="Apply" style="shape=partialRectangle;html=1;whiteSpace=wrap;connectable=0;fillColor=none;top=0;left=0;bottom=0;right=0;overflow=hidden;" vertex="1" parent="fS8NNH9jHNJrWvq1IYAq-123">
          <mxGeometry x="424" width="206" height="40" as="geometry" />
        </mxCell>
        <mxCell id="fS8NNH9jHNJrWvq1IYAq-139" value="Сумма" style="shape=partialRectangle;html=1;whiteSpace=wrap;connectable=0;fillColor=none;top=0;left=0;bottom=0;right=0;overflow=hidden;" vertex="1" parent="fS8NNH9jHNJrWvq1IYAq-123">
          <mxGeometry x="630" width="206" height="40" as="geometry" />
        </mxCell>
        <mxCell id="fS8NNH9jHNJrWvq1IYAq-127" value="" style="shape=partialRectangle;html=1;whiteSpace=wrap;collapsible=0;dropTarget=0;pointerEvents=0;fillColor=none;top=0;left=0;bottom=0;right=0;points=[[0,0.5],[1,0.5]];portConstraint=eastwest;" vertex="1" parent="fS8NNH9jHNJrWvq1IYAq-122">
          <mxGeometry y="40" width="836" height="40" as="geometry" />
        </mxCell>
        <mxCell id="fS8NNH9jHNJrWvq1IYAq-129" value="90.02 Себестоимость продаж" style="shape=partialRectangle;html=1;whiteSpace=wrap;connectable=0;fillColor=none;top=0;left=0;bottom=0;right=0;overflow=hidden;" vertex="1" parent="fS8NNH9jHNJrWvq1IYAq-127">
          <mxGeometry width="218" height="40" as="geometry" />
        </mxCell>
        <mxCell id="fS8NNH9jHNJrWvq1IYAq-130" value="90.07 Товары, продукция" style="shape=partialRectangle;html=1;whiteSpace=wrap;connectable=0;fillColor=none;top=0;left=0;bottom=0;right=0;overflow=hidden;" vertex="1" parent="fS8NNH9jHNJrWvq1IYAq-127">
          <mxGeometry x="218" width="206" height="40" as="geometry" />
        </mxCell>
        <mxCell id="fS8NNH9jHNJrWvq1IYAq-152" value="Товар отгружен - да - true&lt;br&gt;Отвар отгружен - нет - false" style="shape=partialRectangle;html=1;whiteSpace=wrap;connectable=0;fillColor=none;top=0;left=0;bottom=0;right=0;overflow=hidden;" vertex="1" parent="fS8NNH9jHNJrWvq1IYAq-127">
          <mxGeometry x="424" width="206" height="40" as="geometry" />
        </mxCell>
        <mxCell id="fS8NNH9jHNJrWvq1IYAq-140" value="Себестоимость" style="shape=partialRectangle;html=1;whiteSpace=wrap;connectable=0;fillColor=none;top=0;left=0;bottom=0;right=0;overflow=hidden;" vertex="1" parent="fS8NNH9jHNJrWvq1IYAq-127">
          <mxGeometry x="630" width="206" height="40" as="geometry" />
        </mxCell>
        <mxCell id="fS8NNH9jHNJrWvq1IYAq-135" style="shape=partialRectangle;html=1;whiteSpace=wrap;collapsible=0;dropTarget=0;pointerEvents=0;fillColor=none;top=0;left=0;bottom=0;right=0;points=[[0,0.5],[1,0.5]];portConstraint=eastwest;" vertex="1" parent="fS8NNH9jHNJrWvq1IYAq-122">
          <mxGeometry y="80" width="836" height="40" as="geometry" />
        </mxCell>
        <mxCell id="fS8NNH9jHNJrWvq1IYAq-137" value="62.01 Расчеты с покупателями" style="shape=partialRectangle;html=1;whiteSpace=wrap;connectable=0;fillColor=none;top=0;left=0;bottom=0;right=0;overflow=hidden;" vertex="1" parent="fS8NNH9jHNJrWvq1IYAq-135">
          <mxGeometry width="218" height="40" as="geometry" />
        </mxCell>
        <mxCell id="fS8NNH9jHNJrWvq1IYAq-138" value="90.01 Выручка от продаж" style="shape=partialRectangle;html=1;whiteSpace=wrap;connectable=0;fillColor=none;top=0;left=0;bottom=0;right=0;overflow=hidden;" vertex="1" parent="fS8NNH9jHNJrWvq1IYAq-135">
          <mxGeometry x="218" width="206" height="40" as="geometry" />
        </mxCell>
        <mxCell id="fS8NNH9jHNJrWvq1IYAq-153" value="&lt;span&gt;Товар отгружен - да - true&lt;/span&gt;&lt;br&gt;&lt;span&gt;Отвар отгружен - нет - false&lt;/span&gt;" style="shape=partialRectangle;html=1;whiteSpace=wrap;connectable=0;fillColor=none;top=0;left=0;bottom=0;right=0;overflow=hidden;" vertex="1" parent="fS8NNH9jHNJrWvq1IYAq-135">
          <mxGeometry x="424" width="206" height="40" as="geometry" />
        </mxCell>
        <mxCell id="fS8NNH9jHNJrWvq1IYAq-141" value="Сумма продажи" style="shape=partialRectangle;html=1;whiteSpace=wrap;connectable=0;fillColor=none;top=0;left=0;bottom=0;right=0;overflow=hidden;" vertex="1" parent="fS8NNH9jHNJrWvq1IYAq-135">
          <mxGeometry x="630" width="206" height="40" as="geometry" />
        </mxCell>
        <mxCell id="fS8NNH9jHNJrWvq1IYAq-131" value="" style="shape=partialRectangle;html=1;whiteSpace=wrap;collapsible=0;dropTarget=0;pointerEvents=0;fillColor=none;top=0;left=0;bottom=0;right=0;points=[[0,0.5],[1,0.5]];portConstraint=eastwest;" vertex="1" parent="fS8NNH9jHNJrWvq1IYAq-122">
          <mxGeometry y="120" width="836" height="40" as="geometry" />
        </mxCell>
        <mxCell id="fS8NNH9jHNJrWvq1IYAq-133" value="51 Банк&amp;nbsp;(или то, что выбрано в событии)" style="shape=partialRectangle;html=1;whiteSpace=wrap;connectable=0;fillColor=none;top=0;left=0;bottom=0;right=0;overflow=hidden;" vertex="1" parent="fS8NNH9jHNJrWvq1IYAq-131">
          <mxGeometry width="218" height="40" as="geometry" />
        </mxCell>
        <mxCell id="fS8NNH9jHNJrWvq1IYAq-134" value="&lt;span&gt;62.01 Расчеты с покупателями&lt;/span&gt;" style="shape=partialRectangle;html=1;whiteSpace=wrap;connectable=0;fillColor=none;top=0;left=0;bottom=0;right=0;overflow=hidden;" vertex="1" parent="fS8NNH9jHNJrWvq1IYAq-131">
          <mxGeometry x="218" width="206" height="40" as="geometry" />
        </mxCell>
        <mxCell id="fS8NNH9jHNJrWvq1IYAq-154" value="&lt;span&gt;Деньги пришли&lt;/span&gt;&lt;span&gt;&amp;nbsp;- да - true&lt;br&gt;&lt;/span&gt;Деньги пришли&amp;nbsp;- нет - false&lt;span&gt;&lt;br&gt;&lt;/span&gt;" style="shape=partialRectangle;html=1;whiteSpace=wrap;connectable=0;fillColor=none;top=0;left=0;bottom=0;right=0;overflow=hidden;" vertex="1" parent="fS8NNH9jHNJrWvq1IYAq-131">
          <mxGeometry x="424" width="206" height="40" as="geometry" />
        </mxCell>
        <mxCell id="fS8NNH9jHNJrWvq1IYAq-142" value="&lt;span&gt;Сумма продажи&lt;/span&gt;" style="shape=partialRectangle;html=1;whiteSpace=wrap;connectable=0;fillColor=none;top=0;left=0;bottom=0;right=0;overflow=hidden;" vertex="1" parent="fS8NNH9jHNJrWvq1IYAq-131">
          <mxGeometry x="630" width="206" height="40" as="geometry" />
        </mxCell>
        <mxCell id="fS8NNH9jHNJrWvq1IYAq-155" value="Осуществление услуги" style="rounded=1;whiteSpace=wrap;html=1;fontSize=14;" vertex="1" parent="1">
          <mxGeometry x="1120" y="1760" width="240" height="90" as="geometry" />
        </mxCell>
        <mxCell id="fS8NNH9jHNJrWvq1IYAq-156" value="&lt;ul&gt;&lt;li&gt;&lt;span&gt;Дата поступления денег&lt;/span&gt;&lt;br&gt;&lt;/li&gt;&lt;li&gt;&lt;span&gt;Деньги пришли?&lt;/span&gt;&lt;/li&gt;&lt;li&gt;Дата осуществления услуги - надо ли?&lt;/li&gt;&lt;li&gt;Услугу осуществили? - надо ли?&lt;/li&gt;&lt;li&gt;Счет - банк / касса / суб. счет?&lt;/li&gt;&lt;li&gt;Статья ДДС (по умолчанию - Оплата от покупателей)&lt;/li&gt;&lt;li&gt;Сумма (Себестоимость)&lt;/li&gt;&lt;li&gt;Партнер&lt;/li&gt;&lt;li&gt;Описание&lt;/li&gt;&lt;li&gt;Скан&lt;/li&gt;&lt;/ul&gt;" style="text;strokeColor=none;fillColor=none;html=1;whiteSpace=wrap;verticalAlign=middle;overflow=hidden;fontSize=14;" vertex="1" parent="1">
          <mxGeometry x="1100" y="1850" width="420" height="200" as="geometry" />
        </mxCell>
        <mxCell id="fS8NNH9jHNJrWvq1IYAq-157" value="" style="shape=table;html=1;whiteSpace=wrap;startSize=0;container=1;collapsible=0;childLayout=tableLayout;fontSize=14;" vertex="1" parent="1">
          <mxGeometry x="1120" y="2090" width="630" height="120" as="geometry" />
        </mxCell>
        <mxCell id="fS8NNH9jHNJrWvq1IYAq-158" value="" style="shape=partialRectangle;html=1;whiteSpace=wrap;collapsible=0;dropTarget=0;pointerEvents=0;fillColor=none;top=0;left=0;bottom=0;right=0;points=[[0,0.5],[1,0.5]];portConstraint=eastwest;" vertex="1" parent="fS8NNH9jHNJrWvq1IYAq-157">
          <mxGeometry width="630" height="40" as="geometry" />
        </mxCell>
        <mxCell id="fS8NNH9jHNJrWvq1IYAq-159" value="Дт" style="shape=partialRectangle;html=1;whiteSpace=wrap;connectable=0;fillColor=none;top=0;left=0;bottom=0;right=0;overflow=hidden;" vertex="1" parent="fS8NNH9jHNJrWvq1IYAq-158">
          <mxGeometry width="218" height="40" as="geometry" />
        </mxCell>
        <mxCell id="fS8NNH9jHNJrWvq1IYAq-160" value="Кт" style="shape=partialRectangle;html=1;whiteSpace=wrap;connectable=0;fillColor=none;top=0;left=0;bottom=0;right=0;overflow=hidden;" vertex="1" parent="fS8NNH9jHNJrWvq1IYAq-158">
          <mxGeometry x="218" width="206" height="40" as="geometry" />
        </mxCell>
        <mxCell id="fS8NNH9jHNJrWvq1IYAq-161" value="Apply" style="shape=partialRectangle;html=1;whiteSpace=wrap;connectable=0;fillColor=none;top=0;left=0;bottom=0;right=0;overflow=hidden;" vertex="1" parent="fS8NNH9jHNJrWvq1IYAq-158">
          <mxGeometry x="424" width="206" height="40" as="geometry" />
        </mxCell>
        <mxCell id="fS8NNH9jHNJrWvq1IYAq-162" value="" style="shape=partialRectangle;html=1;whiteSpace=wrap;collapsible=0;dropTarget=0;pointerEvents=0;fillColor=none;top=0;left=0;bottom=0;right=0;points=[[0,0.5],[1,0.5]];portConstraint=eastwest;" vertex="1" parent="fS8NNH9jHNJrWvq1IYAq-157">
          <mxGeometry y="40" width="630" height="40" as="geometry" />
        </mxCell>
        <mxCell id="fS8NNH9jHNJrWvq1IYAq-163" value="62.01 Расчеты с покупателями" style="shape=partialRectangle;html=1;whiteSpace=wrap;connectable=0;fillColor=none;top=0;left=0;bottom=0;right=0;overflow=hidden;" vertex="1" parent="fS8NNH9jHNJrWvq1IYAq-162">
          <mxGeometry width="218" height="40" as="geometry" />
        </mxCell>
        <mxCell id="fS8NNH9jHNJrWvq1IYAq-164" value="90.01 Выручка от продаж" style="shape=partialRectangle;html=1;whiteSpace=wrap;connectable=0;fillColor=none;top=0;left=0;bottom=0;right=0;overflow=hidden;" vertex="1" parent="fS8NNH9jHNJrWvq1IYAq-162">
          <mxGeometry x="218" width="206" height="40" as="geometry" />
        </mxCell>
        <mxCell id="fS8NNH9jHNJrWvq1IYAq-165" value="Услугу осуществили - да - true&lt;br&gt;Услугу осуществили&amp;nbsp;- нет - false" style="shape=partialRectangle;html=1;whiteSpace=wrap;connectable=0;fillColor=none;top=0;left=0;bottom=0;right=0;overflow=hidden;" vertex="1" parent="fS8NNH9jHNJrWvq1IYAq-162">
          <mxGeometry x="424" width="206" height="40" as="geometry" />
        </mxCell>
        <mxCell id="fS8NNH9jHNJrWvq1IYAq-166" value="" style="shape=partialRectangle;html=1;whiteSpace=wrap;collapsible=0;dropTarget=0;pointerEvents=0;fillColor=none;top=0;left=0;bottom=0;right=0;points=[[0,0.5],[1,0.5]];portConstraint=eastwest;" vertex="1" parent="fS8NNH9jHNJrWvq1IYAq-157">
          <mxGeometry y="80" width="630" height="40" as="geometry" />
        </mxCell>
        <mxCell id="fS8NNH9jHNJrWvq1IYAq-167" value="51 Банк&amp;nbsp;(или то, что выбрано в событии)" style="shape=partialRectangle;html=1;whiteSpace=wrap;connectable=0;fillColor=none;top=0;left=0;bottom=0;right=0;overflow=hidden;" vertex="1" parent="fS8NNH9jHNJrWvq1IYAq-166">
          <mxGeometry width="218" height="40" as="geometry" />
        </mxCell>
        <mxCell id="fS8NNH9jHNJrWvq1IYAq-168" value="62.01 Расчеты с покупателями" style="shape=partialRectangle;html=1;whiteSpace=wrap;connectable=0;fillColor=none;top=0;left=0;bottom=0;right=0;overflow=hidden;" vertex="1" parent="fS8NNH9jHNJrWvq1IYAq-166">
          <mxGeometry x="218" width="206" height="40" as="geometry" />
        </mxCell>
        <mxCell id="fS8NNH9jHNJrWvq1IYAq-169" value="&lt;span&gt;Оплачено - нет&amp;nbsp; - false&lt;br&gt;&lt;/span&gt;&lt;span&gt;Оплачено - да - true&lt;/span&gt;" style="shape=partialRectangle;html=1;whiteSpace=wrap;connectable=0;fillColor=none;top=0;left=0;bottom=0;right=0;overflow=hidden;" vertex="1" parent="fS8NNH9jHNJrWvq1IYAq-166">
          <mxGeometry x="424" width="206" height="40" as="geometry" />
        </mxCell>
      </root>
    </mxGraphModel>
  </diagram>
</mxfile>
